# xmcd CD database file
#
# Track frame offsets:
#	150
#	25143
#	43998
#	65768
#	82694
#	102565
#
# Disc length: 1640 seconds
#
# Revision: 0
# Processed by: cddbd v1.5.2PL0 Copyright (c) Steve Scherf et al.
# Submitted via: CDex 1.51
#
DISCID=4a066606
DTITLE=Mattson 2 - Introducing The Mattson 2
DYEAR=2007
DGENRE=Jazz
TTITLE0=Longing Of The Leftist
TTITLE1=Airiar Britar
TTITLE2=Julian The Mountain
TTITLE3=Met
TTITLE4=Noon
TTITLE5=X=6, Y=8 (bonus track)
EXTD=YEAR: 2007
EXTT0=
EXTT1=
EXTT2=
EXTT3=
EXTT4=
EXTT5=
PLAYORDER=
